<svg width="629" height="210" viewBox="0 0 629 210" fill="none" xmlns="http://www.w3.org/2000/svg">
<path d="M628.362 0L586.526 77.7783H626.907V103.68H541.125L582.889 25.9018H541.853V0H628.362Z" fill="white"/>
<path d="M533.777 0V125.944L462.474 64.2453V103.68H436.572V19.4264L430.097 0H436.572L507.875 61.2622V0H533.777Z" fill="white"/>
<path d="M370.872 77.7783C378.05 77.7783 384.162 75.256 389.207 70.2114C394.3 65.1184 396.846 59.0067 396.846 51.8764C396.846 44.6976 394.3 38.586 389.207 33.5414C384.162 28.4484 378.05 25.9018 370.872 25.9018C363.741 25.9018 357.63 28.4484 352.537 33.5414C347.492 38.586 344.97 44.6976 344.97 51.8764C344.97 59.0067 347.492 65.1184 352.537 70.2114C357.63 75.256 363.741 77.7783 370.872 77.7783ZM370.872 0C385.181 0 397.404 5.06881 407.542 15.2064C417.679 25.344 422.748 37.5674 422.748 51.8764C422.748 66.1855 417.679 78.3846 407.542 88.4737C397.404 98.6113 385.181 103.68 370.872 103.68C356.562 103.68 344.363 98.6113 334.274 88.4737C324.137 78.3846 319.068 66.1855 319.068 51.8764C319.068 39.7501 322.851 28.9334 330.418 19.4264L325.543 0H370.872Z" fill="white"/>
<path d="M311.792 0V103.68H285.89V51.8037L259.916 71.2301L234.014 51.8037V84.2537C234.014 91.675 236.051 99.6057 240.126 108.046C243.327 114.788 247.765 121.7 253.44 128.782C259.94 136.882 266.416 143.624 272.867 149.008C262.099 146.826 251.306 142.509 240.489 136.057C218.905 123.106 208.112 105.839 208.112 84.2537V19.4264L201.637 0H208.112L259.916 38.8528L311.792 0Z" fill="white"/>
<path d="M172.072 103.68H114.594V19.4264L108.118 0H192.372L185.896 25.9018H140.495V38.9255H179.348V64.8274H140.495V77.7783H192.663C200.084 96.3558 197.78 111.732 185.751 123.907C178.184 131.522 165.306 139.889 147.116 149.008C152.307 144.303 157.181 138.337 161.741 131.11C167.804 121.554 171.248 112.411 172.072 103.68Z" fill="white"/>
<path d="M77.7783 71.2301C77.7783 44.3581 66.9616 29.2487 45.3282 25.9018H32.3773V103.68H6.47546V19.4264L0 0H45.3282C84.2295 3.97744 103.68 27.7208 103.68 71.2301C103.68 119.347 71.2786 145.273 6.47546 149.008C54.0107 138.24 77.7783 112.314 77.7783 71.2301Z" fill="white"/>
<path d="M386.884 187.07H410.125V195H377.063V152.3H409.332V160.23H386.884V169.502H406.709V177.188H386.884V187.07ZM455.808 195H445.194L436.959 183.105H436.471H427.87V195H417.988V152.3H436.471C447.878 152.3 455.015 158.217 455.015 167.794C455.015 174.199 451.782 178.896 446.231 181.275L455.808 195ZM445.011 167.794C445.011 163.097 441.961 160.352 435.922 160.352H427.87V175.236H435.922C441.961 175.236 445.011 172.43 445.011 167.794ZM483.279 195.732C470.042 195.732 460.16 186.521 460.16 173.65C460.16 160.779 470.042 151.568 483.34 151.568C490.721 151.568 496.882 154.252 500.908 159.132L494.564 164.988C491.697 161.694 488.098 159.986 483.828 159.986C475.837 159.986 470.164 165.598 470.164 173.65C470.164 181.702 475.837 187.314 483.828 187.314C488.098 187.314 491.697 185.606 494.564 182.251L500.908 188.107C496.882 193.048 490.721 195.732 483.279 195.732ZM543.165 177.981V186.033H536.211V195H526.573V186.033H503.576V179.384L523.706 152.3H534.076L515.41 177.981H526.878V169.99H536.211V177.981H543.165ZM564.42 195.732C553.928 195.732 546.12 187.741 546.12 173.65C546.12 159.559 553.928 151.568 564.42 151.568C574.973 151.568 582.72 159.559 582.72 173.65C582.72 187.741 574.973 195.732 564.42 195.732ZM564.42 187.375C569.361 187.375 572.777 183.349 572.777 173.65C572.777 163.951 569.361 159.925 564.42 159.925C559.54 159.925 556.124 163.951 556.124 173.65C556.124 183.349 559.54 187.375 564.42 187.375ZM626.623 177.981V186.033H619.669V195H610.031V186.033H587.034V179.384L607.164 152.3H617.534L598.868 177.981H610.336V169.99H619.669V177.981H626.623Z" fill="white"/>
</svg>
