<svg width="470" height="541" viewBox="0 0 470 541" fill="none" xmlns="http://www.w3.org/2000/svg">
<g clip-path="url(#clip0_1550_105)">
<path d="M184.534 123.226C178.692 122.32 178.445 122.213 181.195 121.791C186.464 120.98 198.905 122.085 207.479 124.123C227.494 128.881 245.707 141.069 265.148 162.714L270.313 168.465L277.701 167.277C308.828 162.275 340.493 166.25 366.978 178.485C374.264 181.851 385.752 188.552 387.187 190.274C387.645 190.822 388.485 194.355 389.053 198.124C391.02 211.164 390.036 221.16 386.047 228.625C383.877 232.688 383.756 233.975 385.215 237.452C386.38 240.227 389.627 242.28 392.843 242.276C399.425 242.267 406.509 231.627 409.791 216.823L411.095 210.943L413.678 213.868C427.846 229.92 438.974 251.811 440.885 267.393L441.383 271.455L439.002 267.762C434.903 261.407 430.785 257.08 425.512 253.591C416.006 247.301 405.955 245.161 379.337 243.758C355.296 242.491 341.69 240.438 328.198 236.038C305.244 228.554 293.672 218.587 266.405 182.812C254.294 166.923 246.808 158.131 239.362 151.051C222.442 134.964 205.816 126.527 184.534 123.226Z" fill="white"/>
<path d="M392.61 158.704C393.215 148.057 394.659 141.033 397.562 134.62C398.711 132.081 399.788 130.003 399.954 130.003C400.12 130.003 399.621 131.877 398.844 134.167C396.733 140.392 396.387 148.905 397.84 158.811C399.686 171.379 400.735 173.192 414.019 186.769C420.25 193.137 427.497 201.168 430.124 204.616L434.901 210.886L430.124 206.405C424.282 200.926 410.847 190.24 407.879 188.712C405.89 187.688 405.594 187.705 404.366 188.927C403.235 190.053 402.997 191.744 402.84 199.741C402.596 212.204 400.897 220.204 396.797 228.203C394.58 232.529 394.23 231.606 396.237 226.723C397.735 223.077 397.887 221.474 397.876 209.408C397.853 185.167 394.975 179.339 378.097 169.355C373.821 166.826 366.776 163.178 362.442 161.249C358.107 159.32 354.664 157.639 354.789 157.514C355.267 157.038 371.727 161.842 378.352 164.39C388.206 168.181 389.833 168.672 391.03 168.215C391.832 167.909 392.22 165.572 392.61 158.704Z" fill="white"/>
<path d="M195.883 200.175C184.022 183.846 176.684 158.809 178.272 140.093L178.764 134.301L181.463 134.794C186.534 135.719 195.275 138.973 199.369 141.459C210.602 148.281 215.465 157.263 220.413 180.328C221.862 187.083 223.763 194.728 224.638 197.317C226.047 201.483 231.369 211.214 235.696 217.534C238.813 222.085 236.743 224.242 229.853 223.62C219.331 222.67 205.078 212.834 195.883 200.175Z" fill="white"/>
<path d="M378.223 321.707C322.793 299.389 303.271 280.017 303.271 247.331C303.271 242.521 303.437 238.585 303.638 238.585C303.84 238.585 305.985 240.173 308.404 242.113C319.644 251.128 332.231 254.979 367.076 260.062C387.58 263.054 399.119 265.47 409.763 269C443.595 280.22 464.527 302.99 469.518 334.004C470.969 343.016 470.118 359.915 467.766 368.822C465.91 375.857 460.245 388.537 458.742 389.023C458.325 389.158 457.917 387.562 457.81 385.389C457.24 373.744 451.355 362.406 441.472 353.913C430.235 344.257 415.137 336.569 378.223 321.707Z" fill="white"/>
<path d="M339.31 330.978C338.615 326.846 337.411 321.568 336.633 319.25L335.219 315.036L337.846 317.985C341.481 322.065 344.354 327.287 346.789 334.241C348.647 339.549 348.856 341.127 348.842 349.753C348.828 358.221 348.596 359.996 346.88 364.773C344.174 372.307 340.816 377.649 335.181 383.383C325.056 393.688 312.038 399.393 293.253 401.76C289.987 402.171 280.47 402.864 272.103 403.299C251.016 404.395 237.138 406.661 224.668 411.04C222.875 411.67 221.274 412.052 221.112 411.89C220.607 411.388 229.098 406.326 236.111 402.948C245.999 398.185 255.842 395.586 277.897 391.913C288.792 390.098 300.043 387.897 302.9 387.021C329.88 378.749 343.748 357.402 339.31 330.978Z" fill="white"/>
<path d="M364.719 376.105C357.355 360.273 355.664 344.988 359.698 330.732C360.13 329.209 360.824 327.962 361.242 327.962C361.659 327.962 363.397 328.902 365.103 330.05C368.497 332.335 375.303 336.182 393.437 346.069C416.065 358.406 428.966 367.959 437.74 378.873C445.423 388.432 450.178 399.318 452.467 412.593C453.762 420.113 453.003 438.206 451.074 445.778C444.99 469.653 430.85 488.406 410.682 499.349C407.727 500.952 405.075 502.269 404.788 502.275C404.501 502.28 405.577 499.543 407.18 496.191C413.965 482.009 414.737 468.214 409.608 452.859C406.467 443.457 400.064 431.985 387.135 412.596C372.103 390.054 368.417 384.054 364.719 376.105Z" fill="white"/>
<path d="M156.519 461.525C177.089 444.157 202.682 431.819 225.996 428.032C236.043 426.399 252.78 427.047 262.084 429.428C276.998 433.245 290.338 441.793 297.276 451.978C304.057 461.932 306.966 470.606 309.995 489.906C311.189 497.519 312.489 505.164 312.882 506.895C315.156 516.897 319.583 524.892 325.067 528.907C333.779 535.283 348.78 535.68 363.536 529.924C366.041 528.947 368.215 528.271 368.368 528.424C368.903 528.955 361.473 533.93 356.23 536.548C349.177 540.071 343.568 541.434 336.115 541.434C322.6 541.434 311.379 534.558 302.016 520.539C300.174 517.78 296.032 509.516 292.813 502.176C282.928 479.628 278.046 472.759 266.568 465.242C256.579 458.701 243.697 457.53 234.006 462.282C221.276 468.523 217.724 484.791 226.842 495.101C230.465 499.198 237.223 502.732 242.749 503.419C253.086 504.705 261.97 496.841 261.97 486.404C261.97 479.627 259.365 475.76 252.808 472.801C243.852 468.76 234.226 473.483 234.272 481.897C234.292 485.484 235.854 487.737 239.45 489.364C241.757 490.408 241.811 490.491 239.929 490.1C231.712 488.396 229.787 478.49 236.394 471.913C244.326 464.018 260.729 467.502 266.362 478.279C268.728 482.805 269.003 491.82 266.94 497.264C262.322 509.448 248.859 515.855 235.201 512.368C225.903 509.994 222.117 507.424 210.906 495.876C191.425 475.809 183.862 471.92 155.777 467.536L150.395 466.696L156.519 461.525Z" fill="white"/>
<path fill-rule="evenodd" clip-rule="evenodd" d="M9.62025 12.0031C74.678 90.9638 174.977 213.901 179.957 220.784C184.068 226.467 182.521 231.576 175.478 235.58C171.561 237.807 163.508 240.063 159.476 240.063C154.916 240.063 149.779 237.867 146.038 234.318C143.393 231.81 132.721 215.874 108.084 177.646C89.233 148.396 73.457 124.131 73.027 123.725C72.032 122.785 72.049 122.817 106.162 183.854C127.582 222.181 134.813 235.731 134.813 237.543C134.813 241.229 133.808 243.166 129.261 248.238C121.681 256.694 118.293 266.195 115.847 285.859C113.104 307.902 105.394 323.473 84.026 350.122C71.518 365.722 69.471 368.581 66.315 374.869C62.339 382.786 61.246 387.221 60.803 397.219C60.335 407.79 61.247 414.619 64.477 424.726C67.304 433.575 70.255 439.417 77.8 451.104C84.311 461.188 88.0611 468.683 88.0611 471.614C88.0611 473.947 88.506 473.95 98.596 471.672C122.741 466.219 142.348 456.629 153.375 444.877C160.199 437.603 161.801 433.586 161.853 423.618C161.887 417.098 161.658 415.733 159.896 411.982C157.027 405.877 151.804 400.801 140.292 392.932C125.209 382.621 118.767 374.32 116.987 362.904C115.527 353.537 117.221 346.928 125.565 329.44C134.202 311.338 136.342 303.624 137.79 285.378C138.725 273.589 140.02 268.94 143.407 265.209C146.939 261.317 150.119 260 158.861 258.805C173.113 256.858 182.188 253.171 189.648 246.297C196.119 240.334 198.827 234.588 199.243 225.938L199.558 219.382L195.942 215.166C182.846 199.896 0.850043 0 0.0440433 0C-0.128057 0 4.18135 5.40178 9.62025 12.0031ZM95.412 409.18C98.373 403.937 96.8 397.195 91.847 393.902C87.167 390.79 79.897 392.256 79.897 396.311C79.897 397.548 80.582 398.449 82.124 399.243C84.72 400.579 84.909 402.081 82.866 405.152C80.797 408.262 80.964 410.996 83.337 412.854C87.162 415.849 92.576 414.202 95.412 409.18Z" fill="white"/>
<path fill-rule="evenodd" clip-rule="evenodd" d="M208.552 262.244C201.862 264.299 195.358 271.39 193.344 278.826C192.116 283.362 192.813 291.319 194.653 293.776C197.625 297.745 200.499 298.791 208.282 298.736C223.518 298.63 236.764 292.095 238.304 283.925C239.567 277.229 233.749 267.948 225.736 263.874C221.601 261.772 212.807 260.938 208.552 262.244ZM226.364 276.172C228.714 272.834 227.686 269.225 223.69 266.785C216.08 262.138 204.571 265.983 204.571 273.173C204.571 276.752 210.572 280.656 216.074 280.656C219.735 280.656 224.746 278.473 226.364 276.172Z" fill="white"/>
</g>
<defs>
<clipPath id="clip0_1550_105">
<rect width="470" height="541" fill="white"/>
</clipPath>
</defs>
</svg>
